# xmcd
#
# Track frame offsets: 
#        150
#        16938
#        34742
#        54637
#        70562
#        85120
#        103897
#        121591
#
# Disc length: 1816 seconds
#
# Revision: 0
# Processed by: cddbd v1.5.2PL0 Copyright (c) Steve Scherf et al.
# Submitted via: ExactAudioCopy v0.99pb5
#
DISCID=5a071608
DTITLE=Dawn Kinnard - Dawn Kinnard
DYEAR=2003
DGENRE=Country
TTITLE0=Blue Rain
TTITLE1=Mexico
TTITLE2=Inside It's Empty
TTITLE3=Like I Said
TTITLE4=Wires In The Sky
TTITLE5=Pictures
TTITLE6=Will The Circle Be Unbroken (Traditional)
TTITLE7=Fire On The Back Door
EXTD=
EXTT0=
EXTT1=
EXTT2=
EXTT3=
EXTT4=
EXTT5=
EXTT6=
EXTT7=
PLAYORDER=
